<svg xmlns="http://www.w3.org/2000/svg" viewBox="0 0 1600 900" role="img" aria-label="Fellfrei Zuhause Tierhaar-Entferner Produktfoto"><defs>
  <linearGradient id="sand" x1="0" x2="1" y1="0" y2="1"><stop offset="0" stop-color="#fbf5ec"/><stop offset=".58" stop-color="#d6c5ae"/><stop offset="1" stop-color="#bda78c"/></linearGradient>
  <linearGradient id="sage" x1="0" x2="1"><stop offset="0" stop-color="#a9c2af"/><stop offset="1" stop-color="#718d7a"/></linearGradient>
  <linearGradient id="bg" x1="0" x2="1" y1="0" y2="1"><stop offset="0" stop-color="#fbfaf7"/><stop offset="1" stop-color="#ede7de"/></linearGradient>
  <filter id="shadow" x="-20%" y="-20%" width="140%" height="150%"><feDropShadow dx="0" dy="26" stdDeviation="24" flood-color="#000" flood-opacity=".20"/></filter>
  <filter id="soft" x="-20%" y="-20%" width="140%" height="140%"><feGaussianBlur stdDeviation="18"/></filter>
</defs>
<rect width="1600" height="900" fill="url(#bg)"/>
<ellipse cx="800" cy="670" rx="455" ry="70" fill="#000" opacity=".10" filter="url(#soft)"/>
<g filter="url(#shadow)" transform="translate(455 360) rotate(-8 350 90)">
  <rect x="0" y="0" width="720" height="178" rx="89" fill="url(#sand)"/>
  <rect x="76" y="47" width="428" height="84" rx="42" fill="#fff" opacity=".48"/>
  <rect x="526" y="38" width="128" height="102" rx="48" fill="url(#sage)" opacity=".95"/>
  <path d="M592 60c24 18 34 54 6 78" fill="none" stroke="#e9f2eb" stroke-width="16" stroke-linecap="round" opacity=".55"/>
</g>
<g opacity=".55" stroke="#b7b1aa" stroke-width="7" stroke-linecap="round"><path d="M350 315c60-18 100 18 142-10"/><path d="M1110 282c74 18 94-28 145 2"/><path d="M985 648c88-24 122 18 185-10"/></g>
</svg>